PathFileType	4	(X/Y/Z)	S01_0002_Gait_markers.trc
DataRate	CameraRate	NumFrames	NumMarkers	Units	OrigDataRate	OrigDataStartFrame	OrigNumFrames
250.000000	250.000000	4	54	mm	250.000000	247	330
Frame#	Time	HEAD_ANT			R_HEAD			L_HEAD			C7			R_BACK			L_BACK			STERNUM			R_ACROMION			R_HUM_PROX			R_HUM_ANT			R_HUM_POST			R_ELBOW_LAT			R_ELBOW_MED			R_FOREARM			R_WIRST_LAT			R_WRITS_MED			R_HAND			L_ACROMION			L_HUM_PROX			L_HUM_ANT			L_HUM_POST			L_ELBOW_LAT			L_ELBOW_MED			L_FOREARM			L_WRIST_LAT			L_WIRST_MED			L_HAND			R_ILIAC			SACRUM			L_ILIAC			R_GTROCH			R_THIGH__1			R_THIGH_2			R_THIGH_3			R_THIGH_4			R_SHANK_1			R_SHANK_2			R_SHANK_3			R_SHANK_4			R_HEEL			R_FOOT_LAT			R_FOOT_MED			L_GTROCH			L_THIGH_1			L_THIGH_2			L_THIGH_3			L_THIGH_4			L_SHANK_1			L_SHANK_2			L_SHANK_3			L_SHANK_4			L_HEEL			L_FOOT_LAT			L_FOOT_MED			
		X1	Y1	Z1	X2	Y2	Z2	X3	Y3	Z3	X4	Y4	Z4	X5	Y5	Z5	X6	Y6	Z6	X7	Y7	Z7	X8	Y8	Z8	X9	Y9	Z9	X10	Y10	Z10	X11	Y11	Z11	X12	Y12	Z12	X13	Y13	Z13	X14	Y14	Z14	X15	Y15	Z15	X16	Y16	Z16	X17	Y17	Z17	X18	Y18	Z18	X19	Y19	Z19	X20	Y20	Z20	X21	Y21	Z21	X22	Y22	Z22	X23	Y23	Z23	X24	Y24	Z24	X25	Y25	Z25	X26	Y26	Z26	X27	Y27	Z27	X28	Y28	Z28	X29	Y29	Z29	X30	Y30	Z30	X31	Y31	Z31	X32	Y32	Z32	X33	Y33	Z33	X34	Y34	Z34	X35	Y35	Z35	X36	Y36	Z36	X37	Y37	Z37	X38	Y38	Z38	X39	Y39	Z39	X40	Y40	Z40	X41	Y41	Z41	X42	Y42	Z42	X43	Y43	Z43	X44	Y44	Z44	X45	Y45	Z45	X46	Y46	Z46	X47	Y47	Z47	X48	Y48	Z48	X49	Y49	Z49	X50	Y50	Z50	X51	Y51	Z51	X52	Y52	Z52	X53	Y53	Z53	X54	Y54	Z54	

248	0.988	1572.584594726562	1753.352783203125	-366.7404174804684	1512.938354492188	1705.554321289062	-286.1995239257809	1513.287475585938	1702.029541015625	-434.2483520507809	1375.128784179688	1533.582641601562	-359.2423400878903	1308.050537109375	1334.887817382812	-290.5252685546872	1307.91748046875	1337.856689453125	-433.9441833496091	1556.942626953125	1375.407958984375	-353.1622314453122	1446.913940429688	1488.866577148438	-183.689056396484	1396.695190429688	1333.38330078125	-88.82621765136689	1453.99951171875	1245.8720703125	-76.12976074218723	1332.568725585938	1253.386352539062	-78.73249816894503	1374.244750976562	1145.733032226562	-61.69708633422826	1356.5029296875	1139.380126953125	-143.0776824951169	1471.882202148438	960.4518432617188	-49.53710937499979	1511.240112304688	892.6524047851562	-86.34122467040996	1442.0087890625	871.5938110351562	-48.90200805664043	1509.630737304688	806.2250366210938	-26.66592979431135	1461.254150390625	1489.048217773438	-523.4736938476559	1449.200317382812	1320.348266601563	-619.1333618164059	1512.92041015625	1241.174438476563	-610.3815917968748	1394.573120117188	1241.112915039063	-648.0194702148435	1454.662231445312	1138.245483398438	-647.6693725585935	1399.198120117188	1131.389770507813	-593.6953124999998	1574.836059570312	974.8929443359376	-612.6634521484373	1607.945922851562	919.8065795898439	-556.5021362304685	1569.198974609375	890.5739135742189	-618.749572753906	1650.370239257812	843.3206176757814	-599.3666381835935	1454.178466796875	1090.3388671875	-181.8800048828122	1323.554077148438	1055.930908203125	-346.1913757324216	1444.791137695312	1076.242797851563	-523.251281738281	1419.4541015625	937.496826171875	-156.8758850097654	1533.798217773438	667.2240600585938	-174.022262573242	1585.64794921875	697.2025146484375	-172.9630584716795	1613.108032226562	596.8256225585938	-203.2617034912108	1550.57421875	587.8937377929688	-192.0878753662108	1516.970092773438	377.6219177246094	-182.943145751953	1567.16455078125	347.0132141113282	-197.5556335449218	1548.135620117188	263.9069213867188	-212.6731872558593	1487.08447265625	281.5836791992188	-200.9429931640624	1415.072875976562	74.49453735351568	-282.0630493164062	1567.850708007812	34.87025833129887	-188.7505035400391	1625.158203125	44.89385223388678	-273.50634765625	1404.0546875	962.1238403320314	-523.5510253906248	1465.5439453125	671.0667724609376	-503.8293457031248	1413.33154296875	695.7904663085939	-518.0662231445311	1387.955688476562	596.4756469726564	-483.317901611328	1450.93115234375	591.9025878906251	-475.6890869140624	1371.621704101562	328.4176635742189	-460.8207702636718	1312.098388671875	316.0247497558595	-462.8285827636718	1296.114013671875	232.1970977783204	-443.9527893066406	1359.13232421875	229.2398529052735	-435.2851867675781	1227.77685546875	53.96382141113289	-367.364013671875	1399.409790039062	19.97559928894053	-443.9074401855469	1440.487548828125	27.3302307128907	-339.1454467773438	
249	0.992	1578.109130859375	1752.802856445312	-366.510589599609	1518.548950195312	1704.998779296875	-286.0586242675777	1518.8544921875	1701.578002929688	-434.1909484863277	1380.551391601562	1532.947631835938	-359.1967773437497	1313.305786132812	1334.381958007812	-290.9160156249997	1313.193481445312	1337.430908203125	-434.2741394042966	1562.400268554688	1374.6904296875	-353.3995361328122	1452.261108398438	1488.223876953125	-183.7008514404293	1401.621337890625	1332.857421875	-89.01273345947236	1458.742797851562	1245.249633789062	-76.18766784667942	1337.413940429688	1252.857299804688	-78.934516906738	1379.520751953125	1145.022583007812	-61.82586288452123	1361.447875976562	1138.768920898438	-143.1436309814451	1476.406005859375	959.9246215820312	-49.40797805786111	1515.97998046875	892.2156982421875	-86.06462860107402	1446.775024414062	871.0101928710938	-48.79199981689434	1514.267700195312	805.85693359375	-26.3879032135008	1466.806762695312	1488.5517578125	-523.3402099609372	1455.048217773438	1319.96142578125	-619.1906738281247	1519.057495117188	1240.91015625	-610.3598632812498	1400.793090820312	1240.6728515625	-648.4518432617185	1461.098510742188	1137.979370117188	-648.1705932617185	1405.662963867188	1130.794311523438	-594.1190185546873	1582.073364257812	975.2488403320314	-612.3092651367185	1615.178588867188	920.3623046875001	-555.978088378906	1576.715698242188	890.8908081054689	-618.4259643554685	1658.185180664062	844.0342407226564	-598.4259033203123	1459.47900390625	1089.819213867188	-181.8341369628904	1328.29443359375	1055.521240234375	-346.2389526367185	1449.806030273438	1075.813232421875	-523.270568847656	1424.79736328125	936.9735717773438	-156.8535919189451	1539.648071289062	666.9559326171875	-174.2266693115233	1591.469848632812	696.8338012695312	-172.9469909667967	1619.289916992188	596.8195190429688	-203.5871734619139	1557.281494140625	588.0435180664062	-192.5861816406249	1526.514892578125	376.2507324218751	-183.732925415039	1577.614501953125	346.9191894531251	-197.8785552978515	1560.397583007812	263.2253723144532	-213.2068328857421	1498.994750976562	279.6733093261719	-201.7939147949218	1431.98681640625	71.05333709716803	-282.7165832519531	1585.560791015625	34.01130676269536	-189.4923095703125	1642.743774414062	45.16542434692389	-274.117431640625	1408.825439453125	961.7012939453126	-523.519592285156	1468.288696289062	670.9051513671876	-504.0360412597655	1416.178588867188	695.9751586914064	-518.3389282226561	1389.9228515625	596.5714721679689	-483.2270202636718	1453.17724609375	591.6043090820314	-475.8427429199218	1372.33056640625	328.5904235839845	-460.6925964355468	1312.839477539062	316.5430908203126	-462.6470947265624	1296.562622070312	232.5754547119141	-443.7395324707031	1360.192260742188	229.1568450927735	-435.6637268066406	1227.87451171875	54.63062667846688	-367.1039123535156	1398.653076171875	20.24883842468272	-443.8400268554688	1440.48291015625	27.31268501281746	-339.1085510253906	
250	0.996	1583.988159179688	1752.075317382812	-365.8067016601559	1522.522583007812	1704.243896484375	-286.5789184570309	1524.475341796875	1701.03564453125	-434.2034912109371	1386.1416015625	1532.312377929688	-359.2373046874997	1318.727172851562	1333.826416015625	-290.8764953613278	1318.619384765625	1336.947387695312	-434.2487487792966	1567.852661132812	1373.848388671875	-353.234191894531	1457.65380859375	1487.59619140625	-183.7896881103512	1406.8056640625	1332.19921875	-89.16157531738251	1463.505615234375	1244.489135742188	-76.15460968017551	1342.352783203125	1252.325073242188	-79.28873443603487	1383.774780273438	1144.403930664062	-61.99766540527318	1366.445068359375	1138.22998046875	-143.2144317626951	1481.055786132812	959.3274536132812	-49.27193450927713	1520.768188476562	891.8548583984375	-84.79509735107402	1451.428833007812	870.4151000976562	-48.8732147216795	1519.008422851562	805.2901000976562	-26.15640449523908	1472.380004882812	1487.994262695313	-523.4242553710934	1461.091186523438	1319.787353515625	-619.3790893554684	1525.218139648438	1240.627685546875	-610.3917846679685	1407.136352539062	1240.20166015625	-648.7949218749998	1467.517456054688	1137.571411132813	-648.4693603515623	1412.17529296875	1130.153442382813	-594.4931030273435	1589.235229492188	975.4534301757814	-611.8481445312498	1622.234985351562	920.8266601562501	-555.4332275390623	1584.35888671875	891.1052246093751	-617.9376220703123	1666.065307617188	844.6339111328126	-597.446594238281	1464.713989257812	1089.174072265625	-181.9834899902341	1333.5869140625	1055.055908203125	-346.2413024902341	1455.069580078125	1075.26025390625	-523.381896972656	1430.221557617188	936.4196166992188	-157.0901641845701	1545.389526367188	666.754638671875	-174.384567260742	1597.284790039062	696.751220703125	-173.0334014892577	1625.410034179688	596.7293701171875	-203.9572296142577	1563.110229492188	587.5841064453125	-193.0070648193358	1535.982421875	374.9944458007813	-184.4642944335937	1587.692260742188	346.6097106933594	-198.318634033203	1572.758178710938	262.6427001953126	-213.5173797607421	1510.759643554688	277.7886047363282	-202.6983489990234	1449.158813476562	67.12881469726568	-283.5626831054688	1603.169189453125	33.16965866088871	-190.2275695800781	1660.207397460938	45.76742553710944	-274.6911010742188	1413.588623046875	961.0596313476564	-523.2122802734373	1470.66259765625	670.4937133789064	-504.1914062499998	1418.586059570312	695.6841430664064	-517.5364990234374	1391.938842773438	596.5758666992189	-483.1550903320311	1454.965942382812	591.2343750000001	-475.9815368652343	1373.150756835938	328.7496032714845	-460.5655517578124	1313.548583984375	316.8171691894532	-462.5227661132812	1297.0009765625	232.9446411132813	-443.5232543945312	1360.628051757812	229.3384704589845	-435.5359191894531	1227.977905273438	55.21994018554695	-366.7439575195312	1398.884765625	20.16424369812022	-443.7095642089844	1439.826538085938	26.67514419555672	-338.6932678222656	
251	1	1589.5419921875	1751.54052734375	-365.5790710449215	1528.199096679688	1703.414916992188	-286.4135437011715	1529.886840820312	1700.498779296875	-434.0461120605465	1391.66552734375	1532.065673828125	-358.9465942382809	1324.047973632812	1333.253540039062	-291.0360412597653	1324.05029296875	1336.414428710938	-434.4076538085935	1573.247802734375	1373.174560546875	-353.4465332031247	1463.008911132812	1486.911010742188	-183.840896606445	1411.729736328125	1331.528564453125	-89.25670623779267	1468.412719726562	1243.762817382812	-76.21672821044895	1347.226806640625	1251.893188476562	-79.40570068359347	1388.480346679688	1143.970336914062	-62.1505622863767	1371.236572265625	1137.563720703125	-143.4214935302732	1485.730590820312	958.7212524414062	-49.20215606689432	1525.661010742188	891.19482421875	-84.49777984619121	1456.171264648438	869.8738403320312	-49.214889526367	1523.522705078125	804.9024047851562	-25.35383605957013	1477.9462890625	1487.346435546875	-523.3308105468747	1467.2548828125	1319.302734375	-619.4961547851559	1531.239501953125	1240.476806640625	-610.2941894531248	1413.45556640625	1239.59033203125	-649.289123535156	1474.035888671875	1137.204711914063	-648.684875488281	1418.3115234375	1129.593627929688	-594.9738159179685	1596.351928710938	975.6093750000001	-611.4566650390623	1629.567138671875	921.2996826171876	-554.7093505859373	1591.987060546875	891.2637939453126	-617.4454956054685	1673.818725585938	845.3654785156251	-596.5435791015623	1470.123291015625	1088.519653320312	-182.0562744140622	1339.038330078125	1054.414916992188	-346.337951660156	1460.5576171875	1074.737060546875	-523.5009155273435	1435.6494140625	935.8131103515625	-157.2942199707029	1551.22607421875	666.1414794921875	-174.9756927490233	1602.9169921875	696.2985229492188	-173.4046020507811	1631.35791015625	596.5457153320312	-204.283721923828	1569.037353515625	587.4277954101562	-193.4914093017577	1545.3505859375	373.4974060058594	-185.4085998535155	1597.962280273438	346.3693237304688	-198.5815124511718	1584.781005859375	262.1112976074219	-214.0463256835937	1522.58544921875	275.6847534179688	-203.5178680419921	1466.25830078125	64.19635009765631	-284.3589172363281	1620.874633789062	32.55397415161137	-190.6906280517578	1677.79638671875	45.70494842529303	-275.2534790039062	1418.416870117188	960.7199707031251	-523.2971191406248	1473.230102539062	669.9165039062501	-504.2169189453123	1421.5263671875	695.7972412109376	-518.1111450195311	1393.912231445312	596.1883544921876	-482.3844909667968	1457.404663085938	591.4697265625001	-476.5206909179686	1373.94775390625	328.7984924316407	-460.3837890624999	1314.338500976562	317.3890380859376	-462.3791809082031	1297.479370117188	233.2616119384766	-443.1541748046874	1361.071533203125	229.4299468994141	-435.3575439453124	1228.11083984375	55.75188827514656	-366.3729858398438	1398.771362304688	20.37647819519053	-443.5779113769531	1439.860473632812	26.85964202880867	-339.1656188964844	
